# xmcd
#
# Track frame offsets:
#	150
#	17133
#	34139
#	49051
#	65999
#	82836
#
# Disc length: 1304
#
# Revision: 1
# Processed by: cddbd v1.5.1PL0 Copyright (c) Steve Scherf et al.
# Submitted via: dBpowerAMP V4.0
# Normalized: r0:TRMNUM
#
DISCID=49051606
DTITLE=Niko  - Luchando por ser alguien
DYEAR=1900
DGENRE=
TTITLE0=Luchando por ser alguien
TTITLE1=Fuego y furia
TTITLE2=La vida no es justa ( con el tralla )
TTITLE3=Luchando por ser alguien ( inst. )
TTITLE4=Fuego y furia ( inst. )
TTITLE5=La vida no es justa ( con el tralla - instrum. )
EXTD=
EXTT0=
EXTT1=
EXTT2=
EXTT3=
EXTT4=
EXTT5=
PLAYORDER=
